<?xml version="1.0" encoding="UTF-8"?>
<svg xmlns="http://www.w3.org/2000/svg" xmlns:xlink="http://www.w3.org/1999/xlink" viewBox="0 0 48 48" version="1.1" width="96px" height="96px">
<g id="surface1">
<path style=" fill:#FFA000;" d="M 30 41 L 26 45 L 22 45 L 18 41 L 18 21 L 30 21 L 30 29 L 28 31 L 30 33 L 30 35 L 28 37 L 30 39 Z "/>
<path style=" fill:#FFA000;" d="M 38 7.800781 C 37.5 6 36 4.699219 34.300781 4.199219 C 31.898438 3.699219 28.199219 3 24 3 C 19.800781 3 16.101563 3.699219 13.699219 4.199219 C 12 4.699219 10.5 6 10 7.800781 C 9.5 9.5 9 11.898438 9 14.5 C 9 17.101563 9.5 19.5 10 21.199219 C 10.5 23 11.898438 24.300781 13.699219 24.699219 C 16.101563 25.300781 19.800781 26 24 26 C 28.199219 26 31.898438 25.300781 34.300781 24.800781 C 36.101563 24.398438 37.5 23 38 21.300781 C 38.5 19.601563 39 17.199219 39 14.601563 C 39 11.898438 38.5 9.5 38 7.800781 Z M 29 13 L 19 13 C 17.898438 13 17 12.101563 17 11 L 17 9 C 17 8.398438 20.101563 8 24 8 C 27.898438 8 31 8.398438 31 9 L 31 11 C 31 12.101563 30.101563 13 29 13 Z "/>
<path style=" fill:#D68600;" d="M 23 26 L 25 26 L 25 45 L 23 45 Z "/>
</g>
</svg>
